<svg width="297mm" height="210mm" version="1.1" viewBox="0 0 1122.5 793.7" xml:space="preserve" xmlns="http://www.w3.org/2000/svg"><path d="m465.72 628.63c-11.22-1.0008-23.201-6.0588-34.575-14.597-4.104-3.0807-7.0519-5.688-11.793-10.43-8.7916-8.7942-15.015-16.774-22.859-29.312-15.958-25.508-36.834-66.868-49.973-99.011-0.27602-0.67519-0.60246-1.1877-0.72544-1.1389-0.80383 0.31886-11.026 7.515-11.181 7.8708-0.28789 0.66244-14.177 51.173-14.539 52.874-1.0593 4.9779-0.39533 8.8715 1.9383 11.366 2.0449 2.1862 4.205 2.7607 10.399 2.7661 4.6899 4e-3 5.0416 0.0889 5.303 1.279 0.0856 0.38994-0.0844 1.7306-0.43772 3.4503-1.0094 4.9135-0.69766 4.7332-7.8434 4.5373-2.9199-0.08-7.9366-0.23458-11.148-0.34342-7.4328-0.2519-26.135-0.25478-32.913-5e-3 -2.8613 0.10543-6.9956 0.26008-9.1875 0.34367-3.9731 0.15152-3.9867 0.1505-4.509-0.34018-0.83157-0.78122-0.85154-1.5772-0.12075-4.8137 0.52063-2.3058 0.77676-3.0503 1.1928-3.4671l0.52978-0.53085 5.6757-0.13537c6.1213-0.14599 6.9066-0.26683 9.5638-1.4716 3.9709-1.8005 7.6087-5.792 9.272-10.174 0.55593-1.4644 35.889-127.37 36.559-130.28 0.27372-1.1863 0.39217-2.5328 0.39264-4.4636 6.7e-4 -2.6969-0.0165-2.7997-0.69684-4.1818-0.42241-0.85804-1.0086-1.6614-1.4864-2.0368-2.0795-1.6341-3.4991-1.9318-9.9195-2.0802-2.8029-0.0648-5.3602-0.21791-5.6828-0.34025-0.59632-0.22612-0.93082-0.94022-0.82502-1.7612 0.0301-0.23358 0.48293-1.7251 1.0063-3.3146 1.2962-3.9364 1.2582-3.905 4.722-3.905 1.4798 0 6.0827 0.13117 10.229 0.29149 9.0558 0.35018 35.516 0.23336 44.1-0.1947 7.2636-0.36219 6.9724-0.58348 6.1162 4.6481-0.56452 3.4497-0.85016 4.2078-1.6463 4.3692-0.26129 0.053-2.8166 0.14437-5.6784 0.20311-3.6142 0.0742-5.7218 0.21311-6.9011 0.45493-5.3576 1.0987-9.074 4.3056-11.039 9.5249-0.74152 1.97-19.498 67.024-19.363 67.159 0.94383 0.94383 51.733-39.997 73.295-59.082 8.0925-7.163 9.8219-8.9414 10.977-11.289 0.59668-1.212 0.70137-1.6528 0.70137-2.9531 0-1.7027-0.31403-2.3364-1.5871-3.2029-1.12-0.76228-2.0394-0.94087-5.4201-1.0528-4.7091-0.15588-4.9095-0.37475-4.0369-4.4098 0.69096-3.1951 1.0639-4.0822 1.8972-4.5131 0.69295-0.35834 1.4576-0.35021 14.455 0.15363 6.5845 0.25524 23.996 0.25481 29.728-7.2e-4 10.996-0.49025 11.517-0.49948 12.201-0.21601 0.76764 0.31797 1.07 0.78694 1.07 1.6597 0 0.79168-0.98735 5.1867-1.372 6.1074-0.5387 1.2893-0.68707 1.3188-7.2278 1.4356-6.3143 0.11284-7.4984 0.25867-10.633 1.3095-4.9492 1.659-7.9228 3.5318-17.775 11.195-7.4659 5.8069-70.779 55.672-71.255 56.12-0.23967 0.22568-0.051 0.83015 1.1353 3.6385 10.033 23.751 25.47 55.027 39.025 79.067 10.819 19.188 21.509 35.576 29.387 45.048 14.737 17.719 27.297 26.952 39.247 28.849 2.0609 0.32723 7.2398 0.27607 9.6615-0.0954 5.869-0.90035 10.88-3.2952 14.135-6.7553 3.0634-3.2563 4.3383-6.7378 3.8792-10.593-0.38056-3.1962-0.44515-5.4921-0.19086-6.7846 0.54385-2.7643 1.906-4.8277 3.7956-5.7494 0.7846-0.38273 1.332-0.48114 2.5877-0.46522 3.5267 0.0447 6.2333 2.0615 7.654 5.7035 0.42572 1.0913 0.49748 1.6547 0.50032 3.9283 4e-3 3.4101-0.6147 5.8244-2.4225 9.4492-3.8945 7.8086-11.492 14.142-21.164 17.643-7.1434 2.5858-16.344 3.7414-24.206 3.0402zm-6.5462-68.498c-7.9168-0.67835-13.644-3.802-16.774-9.1479-3.384-5.7808-4.325-15.21-2.5557-25.608 3.2049-18.835 15.476-40.917 31.645-56.944 10.882-10.787 24.142-17.504 34.568-17.51 2.8731-2e-3 4.9663 0.45908 7.3322 1.6142 3.2868 1.6046 5.4666 4.1335 6.7545 7.8358 0.5228 1.503 0.59038 1.9997 0.59191 4.351 2e-3 3.1476-0.29701 5.0217-1.3046 8.1751-2.8399 8.8883-9.7007 17.183-18.965 22.93-7.4438 4.6172-20.309 9.2475-31.251 11.247-3.2726 0.59816-7.4734 1.1773-8.5393 1.1773-0.38847 0-0.80409 0.11945-0.92359 0.26543-0.30487 0.37244-1.2147 3.4954-1.7167 5.8925-1.2438 5.9391-1.9989 15.811-1.5174 19.84 0.7081 5.9244 3.4592 10.175 8.131 12.562 2.2842 1.1672 3.6615 1.4363 6.6287 1.2952 6.692-0.31831 13.631-3.4559 20.003-9.0453 2.0726-1.8178 4.5844-4.5711 6.0671-6.6501 2.7667-3.8795 2.5554-3.8207 5.4221-1.5102 2.1552 1.737 2.3671 1.9441 2.3724 2.3186 2e-3 0.12642-0.72948 1.1775-1.625 2.3358-7.3766 9.5402-14.999 16.159-23.432 20.345-6.9465 3.4486-13.817 4.8387-20.911 4.2309zm6.2696-59.321c7.9488-0.98032 18.935-5.1883 26.219-10.043 5.2963-3.5297 8.8854-7.307 10.928-11.5 1.3522-2.7766 1.7764-4.5218 1.781-7.3258 7e-3 -4.3772-1.6528-7.569-4.7193-9.075-1.108-0.54414-1.3784-0.58575-3.7424-0.5759-2.3009 0.01-2.7438 0.0774-4.5653 0.6986-3.7153 1.2671-7.0398 3.4843-11.017 7.3476-5.9928 5.8211-12.103 14.822-16.028 23.611-1.0063 2.2532-2.4706 6.2758-2.4706 6.7868 0 0.36648 1.0768 0.38913 3.6154 0.0761zm75.375 59.326c-8.2815-0.79362-13.601-2.789-17.159-6.4361-4.4883-4.6011-4.2397-11.405 0.53673-14.691 1.5956-1.0978 2.8844-1.485 4.9326-1.482 3.1821 5e-3 5.5205 1.0237 7.6192 3.32 1.3507 1.4779 1.9591 2.5393 2.9996 5.233 1.9793 5.1242 3.5556 6.4129 8.1842 6.6907 2.4811 0.14892 4.5384-0.28145 6.8914-1.4416 1.4307-0.70546 2.1643-1.2559 3.6131-2.7114 2.8284-2.8413 4.1735-5.6239 4.677-9.6753 0.41628-3.35-0.41065-8.2676-2.2151-13.173-0.42963-1.1679-2.4897-5.6111-4.5779-9.8738-8.2336-16.808-9.525-19.865-10.762-25.481-0.72884-3.3088-0.92634-9.4938-0.40005-12.528 1.9562-11.278 11.054-21.641 22.278-25.375 3.7885-1.2603 5.2996-1.4876 9.7983-1.4742 4.4522 0.0133 6.3933 0.33206 9.6277 1.5812 3.062 1.1825 5.7876 3.4129 7.0383 5.7596 2.7729 5.2026 1.2663 10.724-3.5663 13.068-1.0411 0.50511-1.4737 0.58727-3.1198 0.59249-1.7258 5e-3 -2.054-0.0615-3.3854-0.69103-2.7909-1.3196-4.4265-3.1964-5.5284-6.3434-1.4217-4.0604-2.3714-5.3111-4.503-5.9308-4.8709-1.416-11.495 3.8295-13.627 10.791-2.0056 6.5488-0.39763 12.928 6.3309 25.115 6.2969 11.405 8.1751 15.401 9.8728 21.002 2.5157 8.2995 2.6187 15.628 0.31867 22.666-3.8394 11.749-14.813 20.015-28.413 21.402-2.0444 0.2086-5.735 0.25073-7.4625 0.0852zm113.92-0.081c-5.0928-0.79484-9.5473-3.0827-13.076-6.716-2.8911-2.9767-4.6583-5.9502-5.9032-9.933-1.043-3.3367-1.3703-6.1527-1.2355-10.629 0.11978-3.9763 0.55805-6.7272 1.7422-10.936 2.4691-8.7746 7.8326-20.257 14.926-31.952 4.7525-7.8365 12.125-18.432 16.152-23.213l0.94741-1.1248-1.8193-1.8537-0.90031 0.38592c-2.4856 1.0655-7.9744 2.588-12.425 3.4467-2.0292 0.39146-3.3938 0.44237-15.182 0.5663-12.742 0.13395-12.972 0.14386-14.121 0.60891-4.2071 1.703-6.512 6.0254-5.4414 10.204 0.60679 2.3686 1.2874 3.0953 5.5856 5.9646 2.8111 1.8766 3.9019 3.4224 4.321 6.1233 0.42716 2.7531-0.4653 5.4242-2.4117 7.2184-1.7456 1.6091-3.9975 2.3828-6.9517 2.3886-3.722 7e-3 -7.3685-2.0709-9.6106-5.4771-3.4395-5.2253-3.5716-12.547-0.35804-19.852 1.8446-4.1935 6.5984-10.681 10.504-14.334 3.6471-3.4117 9.4227-6.2722 14.425-7.1446 1.5223-0.26547 3.8149-0.3287 11.919-0.3287 9.1724 0 11.004-0.0638 21.337-0.74319 13.395-0.88067 14.287-0.89927 15.241-0.31762 1.6584 1.0111 1.3831 2.3138-1.1186 5.2936-6.0423 7.1972-14.538 21.342-20.032 33.352-6.4129 14.019-9.5973 25.549-9.6017 34.768-2e-3 3.9406 0.35749 6.3129 1.3609 8.9843 0.98389 2.6194 1.9051 4.0807 3.7467 5.9435 1.8718 1.8933 4.1299 3.1454 6.7066 3.7186 1.9975 0.44439 7.3568 0.32318 9.8551-0.22289 10.591-2.3151 20.279-10.13 25.272-20.385 2.2671-4.6567 4.1351-10.255 6.2347-18.686 2.2571-9.0632 3.008-13.39 4.2749-24.632 1.5559-13.807 2.2143-17.583 3.5355-20.279 1.9543-3.9875 5.3117-5.9455 10.195-5.9455 1.5709 0 2.353 0.10558 3.2398 0.43736 2.1557 0.80654 3.5185 2.9905 3.5185 5.6385 0 2.3918-1.6838 7.6744-7.4372 23.333-10.506 28.592-12.294 34.965-11.641 41.479 0.93452 9.3185 8.7981 17.217 18.748 18.831 7.9096 1.2829 16.511-1.7329 23.319-8.1762 8.4002-7.95 13.731-19.534 15.67-34.053 0.63218-4.7338 0.78778-12.245 0.31953-15.426-0.46929-3.1876-1.1955-6.2302-2.0499-8.5881-0.665-1.8353-0.77246-1.9868-3.1875-4.493-5.0182-5.2076-6.6681-8.2682-6.6271-12.294 0.0213-2.0904 0.44317-3.6138 1.4365-5.1873 2.916-4.6192 10.266-6.3547 15.046-3.553 2.8266 1.6565 5.1276 5.6983 6.2848 11.039 2.5733 11.877 1.0798 30.699-3.7144 46.811-3.3767 11.349-7.9634 20.69-13.89 28.288-10.512 13.477-19.388 19.647-30.897 21.477-2.2157 0.35226-8.1204 0.35354-9.7677 2e-3 -3.258-0.69505-6.3574-1.9913-9.1072-3.8088-2.7388-1.8103-6.3262-5.5793-8.4509-8.8786-1.6267-2.526-3.2838-6.5325-3.7958-9.1775l-0.25972-1.3417-0.97006 1.1294c-8.5283 9.9288-20.957 18.306-31.304 21.098-4.046 1.092-9.6605 1.606-12.575 1.151zm147.31-0.0881c-2.945-0.67263-6.0811-2.6988-7.8342-5.0616-2.8606-3.8553-3.8231-8.2801-3.2649-15.009 1.217-14.671 7.5376-31.1 18.219-47.358 14.899-22.676 34.153-38.475 50.248-41.229 3.2327-0.5532 8.2666-0.45288 11.209 0.22338 4.5608 1.0481 7.9497 3.0753 10.511 6.2877 0.65186 0.81751 1.2612 1.4864 1.354 1.4864 0.0928 0 1.3236-1.641 2.735-3.6466 1.4114-2.0056 2.8588-3.8928 3.2165-4.1937l0.65028-0.54718h5.1786c6.6364 0 6.4176-0.22916 4.344 4.5481-2.8805 6.6366-9.6044 23.962-14.743 37.99-5.8673 16.016-15.398 45.117-15.765 48.134-0.24738 2.0376 0.94476 3.3221 2.9081 3.1335 1.2522-0.12032 2.9886-1.2569 6.3658-4.1669 2.5874-2.2294 7.9714-7.4617 10.684-10.383 1.1615-1.2509 1.7716-1.7518 2.1337-1.7518 0.62958 0 3.7448 3.4301 3.7448 4.1233 0 1.992-9.8798 11.868-17.681 17.673-8.1811 6.0886-15.532 9.5378-21.263 9.9763-3.0021 0.22976-5.0274-0.46607-5.9548-2.0459-1.469-2.5024 0.50004-9.6197 9.952-35.972 1.0016-2.7926 1.8212-5.1482 1.8212-5.2347 0-0.0864-0.27535-0.25313-0.61188-0.37045-0.59489-0.20738-0.64312-0.16816-1.7375 1.4125-9.6614 13.955-23.747 28.065-35.508 35.57-4.5902 2.929-9.4352 5.1353-13.368 6.0873-2.3523 0.56944-5.8179 0.718-7.5454 0.32345zm17.68-14.015c7.3092-2.757 19.903-14.631 33.569-31.649 7.1365-8.8871 11.678-15.48 13.896-20.172 3.6391-7.7 5.1658-12.876 5.4456-18.462 0.20658-4.1245-0.37877-7.4612-1.8274-10.417-1.0312-2.1038-2.0673-3.3313-3.706-4.3904-4.7158-3.048-11.758-2.1296-18.602 2.426-5.3198 3.5408-11.32 9.7262-16.503 17.012-10.148 14.265-18.557 33.103-21.481 48.124-0.71672 3.6807-0.93407 5.6869-0.9547 8.8122-0.0167 2.5227 0.0525 3.2037 0.45711 4.4981 1.053 3.3691 3.4202 5.0808 6.7371 4.8713 0.88108-0.0556 2.0908-0.32184 2.9705-0.65368zm159.96 14.026c-3.0401-0.81843-4.2343-3.1286-3.4686-6.7101 0.65189-3.0488 2.2084-7.3506 7.7697-21.474 3.9563-10.047 6.0902-15.602 8.4734-22.056 1.1428-3.0949 3.1995-8.4936 4.5706-11.997 5.5435-14.166 7.8071-20.623 8.6086-24.557 0.6665-3.2706 0.2484-5.2802-1.4005-6.7316-1.1827-1.041-2.4697-1.4175-4.7637-1.3932-2.0984 0.0222-4.1163 0.67868-7.1917 2.3398-11.375 6.1442-28.43 22.824-37.97 37.136-3.4027 5.1047-7.3654 11.993-9.4667 16.456-2.9794 6.3282-4.9432 11.192-10.057 24.91-2.0544 5.5109-3.8634 10.269-4.0202 10.574-0.55227 1.0738-1.0887 1.1447-8.6582 1.1447h-6.973l-0.41501-0.51266c-0.30406-0.37561-0.37766-0.68271-0.27529-1.1488 0.0768-0.34986 4.8212-12.828 10.543-27.729 16.029-41.743 16.401-42.732 18.745-49.813 1.8142-5.4807 2.3185-7.5324 2.3226-9.4492 6e-3 -2.7925-1.2574-4.2381-3.7027-4.2371-3.2796 1e-3 -9.9733 5.1167-19.544 14.936-2.1674 2.2236-2.774 2.7319-3.2606 2.7319-0.85412 0-4.5874-3.7029-4.5874-4.5501 0-0.75374 1.3196-2.3393 5.5132-6.6243 12.901-13.182 25.521-20.305 35.976-20.305 0.96305 0 2.27 0.14979 2.9043 0.33286 2.5008 0.72172 4.4771 2.7294 5.203 5.2857 1.0802 3.8038-1.176 11.388-9.5682 32.165-1.6947 4.1956-3.0812 7.7717-3.0812 7.947 0 0.36525 0.81367 0.69239 1.0483 0.42146 0.0859-0.0992 0.9043-1.2792 1.8187-2.6223 8.3583-12.277 21.75-26.255 32.488-33.91 7.1299-5.0829 14.102-8.3219 20.037-9.309 2.6242-0.43645 6.8401-0.33118 8.8418 0.22078 4.1988 1.1577 6.9835 3.8695 7.7785 7.5747 0.3095 1.4423 0.1175 6.3946-0.3484 8.9868-1.4414 8.0206-3.5306 13.832-15.228 42.362-9.2828 22.64-11.636 29.089-11.625 31.851 8e-3 1.8251 1.3998 3.395 3.0118 3.3967 2.6904 3e-3 9.2678-4.4431 16.852-11.39 1.1765-1.0778 2.3709-2.0153 2.6543-2.0834 0.7151-0.17198 1.3933 0.33034 3.0734 2.2761 0.9302 1.0773 1.4231 1.8306 1.4231 2.1747 0 1.804-8.0107 8.8801-15.872 14.021-4.9696 3.2494-9.1795 5.4532-13.59 7.1141-5.5625 2.0947-11.657 3.032-14.587 2.2434zm74.921-0.0139c-1.1-0.39214-1.9132-1.2114-2.5088-2.5274-0.4424-0.9777-0.4909-1.3847-0.4718-3.9564 0.02-2.6293 0.093-3.1395 0.8821-6.1632 1.5263-5.8458 4.248-13.615 12.792-36.517 11.287-30.253 12.231-32.87 12.946-35.886 0.6698-2.8231 0.5436-3.974-0.5631-5.1341-0.7178-0.75254-2.2756-1.1333-3.3862-0.82777-2.709 0.74528-6.9653 4.4105-15.431 13.288-2.4502 2.5693-4.784 4.8522-5.1863 5.0732-0.6493 0.35661-0.7982 0.36852-1.327 0.10617-0.8404-0.41695-3.8279-3.6679-3.8279-4.1655 0-0.91501 7.996-9.673 13.564-14.857 9.0052-8.3836 16.402-13.584 22.852-16.067 3.7643-1.4492 7.671-1.8308 9.963-0.97323 2.245 0.83995 3.7329 3.1739 3.7329 5.8552 0 1.6815-0.7582 5.2801-1.916 9.0927-2.1531 7.0908-3.9661 12.053-14.395 39.399-8.2742 21.696-10.196 27.115-11.182 31.524-1.0715 4.792-0.952 6.5437 0.5488 8.0446 0.7751 0.77508 0.8963 0.82401 1.7907 0.72319 2.1231-0.2393 6.9827-3.8932 12.904-9.7025 2.08-2.0407 4.4688-4.5243 5.3085-5.5192 2.6327-3.1194 2.7601-3.2276 3.497-2.9707 0.9434 0.32888 3.481 2.601 4.0147 3.5947 0.3801 0.70763 0.4247 0.97701 0.2467 1.4878-0.4876 1.3987-7.1919 8.4696-11.934 12.587-6.1152 5.3093-12.969 9.6886-18.822 12.027-5.4891 2.1925-11.773 3.2919-14.092 2.4653zm40.842-143.68c-4.2307-0.3485-7.3834-2.1701-9.5455-5.5154-3.3363-5.1618-2.4455-12.078 2.0777-16.132 1.3229-1.1857 3.9445-2.5448 5.773-2.9928 1.6768-0.41088 5.7213-0.34863 7.4319 0.1144 5.1217 1.3863 8.6018 5.184 9.3887 10.245 0.4299 2.7649-0.3956 5.9111-2.3164 8.829-2.6501 4.026-7.1033 5.921-12.809 5.4509zm-1031.2-49.386c-2.3311-0.20152-7.2992-1.0074-9.6615-1.5672-17.209-4.0779-30.298-14.353-36.886-28.957-4.5251-10.03-6.0767-23.123-3.9813-33.595 2.8237-14.112 12.616-26.119 25.966-31.841 10.538-4.5165 21.371-4.1469 28.931 0.98724 2.7618 1.8755 5.0951 4.8278 5.8655 7.4216 0.70937 2.3882 0.2687 6.3849-0.99265 9.0032-2.1638 4.4914-6.3206 6.6589-12.375 6.4528-5.0273-0.17109-7.5857-1.7701-11.846-7.4034-2.5644-3.3912-3.8374-4.3849-6.2398-4.871-5.9195-1.1978-13.616 4.5282-17.725 13.187-5.8459 12.318-3.8116 25.801 5.6705 37.584 1.4903 1.8519 5.7636 6.0455 7.5814 7.44 11.946 9.1643 26.595 12.365 45.519 9.9461 23.646-3.0226 45.019-14.443 65.753-35.134 8.7201-8.7021 16.857-19.28 25.727-33.444 15.303-24.437 31.245-59.07 39.635-86.104 2.8219-9.0935 2.9409-11.539 0.61306-12.594-0.72207-0.32729-2.247-0.35802-17.354-0.3498-16.483 9e-3 -22.122 0.17013-29.94 0.85561-13.07 1.146-23.144 3.4228-32.305 7.3012-6.9288 2.9334-11.95 6.8394-13.145 10.226-0.38989 1.1051-0.40133 4.1804-0.0208 5.6027 0.63792 2.3845 2.1252 4.3959 4.1109 5.5596 0.50879 0.29817 1.7902 0.86376 2.8475 1.2569 2.4301 0.90349 4.0695 1.898 5.5812 3.3857 6.0137 5.9184 4.5543 13.402-3.331 17.081-2.1908 1.0222-3.9512 1.3767-5.9843 1.2048-7.0404-0.59513-12.643-7.2724-14.041-16.734-2.0832-14.102 8.0736-32.185 22.311-39.722 7.7794-4.1182 16.047-6.3134 28.563-7.5838 6.7899-0.68922 11.255-0.9042 21.763-1.0477 13.656-0.18648 57.002 0.1212 58.457 0.41495 1.336 0.26965 2.3537 1.1647 2.7668 2.4334 0.31241 0.9594 0.52961 3.9402 0.9971 13.684 0.34729 7.2384 2.3198 41.146 4.1327 71.04 2.1141 34.862 2.6386 42.779 2.996 45.216 0.45954 3.1355 1.2055 4.3905 2.3508 3.9551 0.6684-0.25413 2.2482-1.8614 3.6787-3.7428 0.62159-0.81751 21.692-30.487 46.823-65.932 25.131-35.445 45.994-64.764 46.363-65.154 0.36864-0.38979 1.0525-0.91321 1.5196-1.1632 0.8318-0.44504 1.1181-0.45755 13.843-0.6047 7.1467-0.0827 15.508-0.25183 18.58-0.37597 8.6842-0.35091 10.402-0.31776 11.078 0.21369 0.3099 0.24377 0.55948 0.65442 0.55948 0.92055 0 0.26425-0.28415 1.9482-0.63145 3.7422-0.47003 2.4279-0.74281 3.3732-1.067 3.6979-0.41134 0.4119-0.74533 0.44204-6.0095 0.54231l-5.574 0.10617-1.4059 0.69256c-3.3032 1.6272-5.9166 5.7976-8.4146 13.428-2.264 6.9158-12.816 43.505-19.252 66.753-7.07 25.541-15.364 56.885-15.964 60.333-0.57822 3.3192 0.0144 5.7063 1.6245 6.5439 0.59267 0.30831 1.0626 0.36491 2.3346 0.28115 3.7951-0.24993 8.8856-3.0608 12.928-7.1383 0.87113-0.87879 2.7956-3.2222 4.2767-5.2076 2.825-3.7871 4.0063-5.0368 5.2535-5.5579 0.67229-0.2809 0.84796-0.27777 1.6526 0.0295 2.8628 1.0933 3.5461 6.4348 1.2769 9.9821-1.8564 2.9019-7.7117 8.9686-11.864 12.292-10.992 8.7978-22.046 13.795-32.223 14.568-3.4101 0.25885-5.6222 6e-3 -7.3357-0.83716-1.5613-0.76865-2.2611-1.6835-2.7502-3.5957-0.40763-1.5936-0.34439-2.4642 0.56046-7.7164 1.2999-7.5454 2.3926-12.12 6.808-28.506 11.467-42.556 20.428-74.475 30.212-107.62 1.2354-4.1853 2.2461-7.8465 2.2461-8.136 0-0.9466-0.3671-1.3479-1.2331-1.3479-1.195 0-2.0316 0.83017-5.0966 5.0577-6.5707 9.0627-25.597 35.644-63.178 88.266-22.186 31.065-40.726 56.951-41.201 57.523-1.7149 2.067-3.5833 3.1939-4.8836 2.9453-1.5871-0.30339-2.4748-2.3819-2.9928-7.007-0.94735-8.4598-9.1479-122.36-9.7881-135.96-0.19945-4.2344-0.55382-5.226-1.6836-4.7112-0.9479 0.43189-1.609 1.8663-3.7028 8.0344-8.9506 26.367-21.707 54.965-34.463 77.26-9.3121 16.276-18.873 29.906-28.524 40.663-3.2705 3.6454-12.434 12.641-16.551 16.247-10.295 9.0186-18.841 14.892-28.878 19.848-11.78 5.8155-23.328 9.023-35.898 9.9704-2.7249 0.20538-11.321 0.25693-13.365 0.0802zm643.3-16.224c-6.4235-1.2603-10.869-6.3882-10.325-11.909 0.34991-3.551 1.7405-6.6967 3.9314-8.8929 1.5856-1.5894 2.9779-2.326 4.6906-2.4813 4.464-0.40479 8.7155 3.0725 9.538 7.8011 0.53642 3.0837 1.8735 4.686 4.0414 4.8428 1.049 0.0759 1.3963 5.2e-4 2.3235-0.50408 3.0655-1.6684 7.4519-7.9475 11.709-16.761 7.7062-15.955 13.724-36.83 15.284-53.018 0.34937-3.6251 0.16435-11.526-0.31731-13.55-0.77957-3.276-2.1477-5.2361-4.3427-6.2218-1.3671-0.61392-4.0018-0.59815-6.29 0.0376-7.9537 2.21-19.639 11.738-32.724 26.681-9.1345 10.432-13.586 16.857-18.754 27.068-3.0028 5.9328-3.2875 6.5842-9.9312 22.72-3.1014 7.5328-5.8338 14.114-6.0719 14.624-0.69566 1.4914-0.82468 1.5138-8.7021 1.5138-7.4334 0-7.7562-0.0463-7.542-1.0816 0.0581-0.28103 13.448-33.543 29.755-73.914 16.307-40.372 30.07-74.631 30.584-76.131 1.4624-4.2695 2.05-7.5958 1.6224-9.1839-0.31032-1.1524-1.4689-2.4096-2.8378-3.0793-1.9503-0.95417-3.5987-1.1657-9.1148-1.1698-7.5339-5e-3 -7.419 0.0984-5.7743-5.2165 0.50568-1.6341 0.89412-2.5041 1.2799-2.8666l0.55391-0.52043 18.455-0.0565c20.355-0.0623 19.573-0.11043 20.275 1.2469 0.54458 1.0531 0.31401 3.0055-0.71871 6.0859-0.48029 1.4326-10.001 24.006-21.158 50.163s-20.285 47.637-20.285 47.733c0 0.0961 0.27282 0.37645 0.60626 0.62297l0.60626 0.44823 2.5737-3.5701c6.409-8.8903 10.816-14.204 16.482-19.874 6.0782-6.0822 10.212-9.255 15.925-12.221 7.497-3.893 15.823-5.1379 21.598-3.2293 4.8631 1.6073 8.415 5.3608 10.439 11.032 1.2488 3.4986 1.6605 7.4388 1.3914 13.317-0.64544 14.101-4.9766 29.617-13.138 47.067-11.713 25.043-25.553 39.98-39.257 42.37-1.9317 0.33686-4.8833 0.37379-6.3816 0.0798zm-286.57-5.5235c-8.2205-0.73288-15.917-6.5136-20.283-15.234-4.7498-9.4879-5.2393-21.698-1.4759-36.816 5.2262-20.996 17.32-39.684 32.057-49.536 11.694-7.8176 25.676-9.8128 36.098-5.151 3.448 1.5424 7.477 4.9236 9.8233 8.2439 3.842 5.4368 5.6776 12.615 5.4 21.117-0.55264 16.926-7.9935 37.909-18.787 52.979-3.9084 5.4567-9.2671 11.179-13.675 14.604-7.3104 5.6789-15.789 9.2089-23.318 9.7082-0.99269 0.0658-2.2827 0.15051-2.8666 0.18819-0.58394 0.0377-1.9217-8e-3 -2.9728-0.10186zm2.6543-12.651c5.5148-1.0973 11.701-4.7644 17.736-10.513 11.326-10.789 22.964-30.102 28.511-47.312 3.1057-9.6356 3.3568-15.873 0.8333-20.702-0.9255-1.7709-3.2828-4.0664-5.0818-4.9485-7.0221-3.4432-16.858-0.25011-26.888 8.7292-10.786 9.6554-22.764 28.754-28.056 44.738-2.1576 6.5154-3.0566 11.36-3.0734 16.563-0.0109 3.3624 0.0374 3.8761 0.50766 5.3985 0.85344 2.7633 2.8003 5.3723 5.0465 6.7628 2.8839 1.7853 6.0163 2.1698 10.466 1.2845zm91.2 12.666c-11.834-0.82827-17.966-6.0761-20.213-17.299-0.54946-2.7444-0.55142-12.303-3e-3 -15.819 2.8986-18.595 13.577-38.945 29.353-55.938 6.2689-6.7525 12.92-11.817 20.466-15.586 10.066-5.0264 18.776-5.9658 24.757-2.6702 1.6342 0.90049 4.3269 3.7462 5.1607 5.454 1.183 2.423 1.6007 4.5141 1.4719 7.3675-0.58244 12.903-10.692 25.968-25.581 33.057-9.9638 4.7441-22.357 8.2768-33.112 9.4386l-2.3726 0.25629-0.55567 1.719c-0.7468 2.3103-1.7117 7.1929-2.165 10.956-0.26431 2.1938-0.37379 4.7271-0.38083 8.8121-9e-3 5.3684 0.0212 5.8405 0.47849 7.4199 1.2617 4.3575 4.0042 7.7503 7.7011 9.5274 2.5239 1.2132 3.9853 1.5153 6.4368 1.3305 6.9986-0.52762 13.498-3.4314 19.738-8.8179 2.7901-2.4088 6.0263-6.0555 7.4529-8.3983 0.59979-0.98498 1.436-1.8049 1.8408-1.8049 0.5611 0 4.8623 3.5781 4.8623 4.0449 0 0.763-5.5536 7.463-9.2331 11.139-11.311 11.3-23.608 16.686-36.102 15.812zm9.8297-60.069c3.2023-0.72158 8.6795-2.4985 11.829-3.8376 6.6004-2.8064 11.858-6.1039 15.868-9.9529 2.4879-2.388 3.8657-4.1616 5.1418-6.6194 3.6235-6.9785 2.0974-14.988-3.2362-16.985-2.6151-0.97901-6.8875-0.40388-10.509 1.4146-7.2956 3.6637-15.142 12.5-21.658 24.391-2.0936 3.8205-4.5966 9.615-5.1273 11.87l-0.14492 0.61574 2.507-0.12999c1.5805-0.0819 3.5502-0.36503 5.3295-0.76597zm71.441 60.058c-2.9599-0.18712-6.5433-0.82189-8.9734-1.5896-7.5911-2.398-12.03-7.39-11.623-13.072 0.29-4.0531 3.8511-7.6294 7.9382-7.972 5.1262-0.42976 9.1258 2.6028 11.394 8.6391 1.4531 3.8671 2.7901 5.4378 5.23 6.1445 6.6979 1.94 13.713-1.5509 16.801-8.36 1.0814-2.3849 1.355-3.7868 1.3501-6.9179-5e-3 -3.2885-0.37625-5.5207-1.4923-8.9753-1.1062-3.4241-2.0654-5.6-5.7485-13.041-8.2254-16.618-9.8762-20.78-10.788-27.201-0.56058-3.9458-0.36722-8.6716 0.48839-11.936 1.5265-5.8244 4.3766-10.707 8.8627-15.182 2.8606-2.8538 5.5528-4.8055 8.9128-6.4613 4.6138-2.2737 8.7111-3.2472 13.696-3.2543 4.5816-7e-3 9.2491 1.0738 12.253 2.8359 4.9962 2.9308 7.3007 8.9519 5.1694 13.506-1.1147 2.3821-3.4973 4.2672-5.991 4.7402-2.4918 0.47256-5.8764-0.78525-7.8121-2.9032-1.2845-1.4054-1.6582-2.0947-2.7574-5.0848-0.45205-1.2297-1.0676-2.6072-1.368-3.061-1.2775-1.9304-4.1896-2.6439-6.9888-1.7124-3.4921 1.1621-7.0965 4.8468-8.8414 9.0383-1.0487 2.5191-1.3576 4.4401-1.2288 7.6423 0.21058 5.2366 1.8932 9.7645 7.2605 19.538 6.0792 11.07 7.188 13.363 8.9945 18.606 3.0104 8.7359 3.3692 16.91 1.061 24.172-1.6434 5.17-4.78 9.9741-8.7754 13.44-7.1788 6.2284-16.379 9.096-27.023 8.4231zm192.79-3e-3c-3.4104-0.43099-6.8596-2.4311-8.9368-5.1824-1.1036-1.4617-2.3858-4.1603-2.8753-6.0513-0.80963-3.128-0.64171-9.2218 0.42422-15.395 4.5661-26.443 25.907-58.764 48.935-74.112 9.525-6.3482 17.875-9.0352 26.021-8.3737 6.4906 0.52705 11.434 2.8917 14.529 6.9496 0.63307 0.83012 1.2082 1.474 1.2782 1.4308 0.0699-0.0432 1.3095-1.7622 2.7545-3.8199s2.9221-3.9515 3.2823-4.2085c0.62083-0.44285 0.90565-0.47066 5.473-0.53448 3.0624-0.0428 4.9686 0.0132 5.231 0.15365 0.87444 0.46799 0.76099 1.1346-0.8269 4.8586-4.8438 11.36-14.299 36.342-19.265 50.901-7.0602 20.697-11.085 33.472-11.085 35.186 0 2.509 1.8857 3.5947 4.2036 2.4202 2.4196-1.2261 7.6395-5.8056 13.582-11.916 2.2134-2.2759 4.1687-4.1379 4.345-4.1379 0.39973 0 3.7751 3.7176 3.7751 4.1579 0 1.3113-5.029 6.9826-10.503 11.844-11.317 10.051-21.976 15.833-29.273 15.878-2.35 0.0144-3.5694-0.30738-4.5036-1.1884-2.2745-2.1451-1.4219-6.2461 5.3213-25.595 1.8268-5.2417 5.3493-15.184 5.7441-16.213 0.069-0.1798-0.14287-0.39369-0.56188-0.56725-0.57738-0.23916-0.69822-0.23288-0.85334 0.0443-0.0994 0.1776-0.99337 1.4598-1.9866 2.8494-9.4386 13.205-21.934 25.708-33.204 33.224-8.0899 5.3951-15.695 8.071-21.025 7.3975zm14.849-13.662c3.7747-0.80012 8.9792-4.3365 16.072-10.921 8.8123-8.1804 22.037-23.906 29.397-34.959 4.1679-6.2581 7.616-14.545 8.7916-21.128 0.52956-2.9655 0.48055-7.7891-0.1055-10.385-1.5456-6.8451-5.8143-10.277-12.346-9.9267-2.6627 0.14287-4.7084 0.68183-7.3784 1.9438-10.537 4.9803-21.691 18.337-31.124 37.266-4.0974 8.2228-6.7354 14.829-8.8609 22.19-2.3703 8.2088-3.4214 15.672-2.7664 19.642 0.68668 4.1615 2.7263 6.1549 6.7059 6.5539 0.11678 0.0117 0.84337-0.11247 1.6146-0.27596z"/></svg>